<svg xmlns="http://www.w3.org/2000/svg" fill="none" viewBox="0 0 240 240"><defs><linearGradient id="a" x1="70" x2="170" y1="50" y2="180" gradientUnits="userSpaceOnUse"><stop offset="0" stop-color="#67E8F9"/><stop offset="1" stop-color="#A78BFA"/></linearGradient></defs><path stroke="url(#a)" stroke-linejoin="round" stroke-width="2.5" d="M120 52c-26 0-46 22-46 48 0 18 10 30 18 40 6 7 9 12 10 20h36c1-8 4-13 10-20 8-10 18-22 18-40 0-26-20-48-46-48Z"/><path stroke="url(#a)" stroke-linecap="round" stroke-width="2.4" d="M107 174h26m-23 12h20"/><path stroke="#67E8F9" stroke-linejoin="round" stroke-width="2.1" d="M108 108c0-8 8-12 12-6 4-6 12-2 12 6s-10 10-12 18c-2-8-12-10-12-18Z"/><path stroke="#8B9BB4" stroke-linecap="round" stroke-opacity=".55" stroke-width="2.2" d="m46 88 22 8"/><circle cx="40" cy="84" r="6" stroke="#67E8F9" stroke-width="2.2"/><path stroke="#8B9BB4" stroke-linecap="round" stroke-opacity=".55" stroke-width="2.2" d="m194 88-22 8"/><circle cx="200" cy="84" r="6" stroke="#A78BFA" stroke-width="2.2"/></svg>