<svg xmlns="http://www.w3.org/2000/svg" fill="none" viewBox="0 0 240 240"><defs><linearGradient id="a" x1="35" x2="205" y1="40" y2="190" gradientUnits="userSpaceOnUse"><stop offset="0" stop-color="#0284c7"/><stop offset="1" stop-color="#7c3aed"/></linearGradient></defs><path stroke="url(#a)" stroke-linejoin="round" stroke-width="2.75" d="M120 194c-58-42-84-82-84-112 0-27 22-42 44-42 18 0 32 12 40 26 8-14 22-26 40-26 22 0 44 15 44 42 0 30-26 70-84 112Z"/><path stroke="#0284c7" stroke-linecap="round" stroke-linejoin="round" stroke-opacity=".92" stroke-width="2.75" d="M18 112h54l16-30 16 56 13-42 10 16h95"/><circle cx="222" cy="112" r="3.5" fill="#0284c7"/><circle cx="18" cy="112" r="3.5" fill="#0284c7"/></svg>
