<svg xmlns="http://www.w3.org/2000/svg" fill="none" viewBox="0 0 240 240"><defs><linearGradient id="a" x1="80" x2="170" y1="60" y2="170" gradientUnits="userSpaceOnUse"><stop offset="0" stop-color="#67E8F9"/><stop offset="1" stop-color="#A78BFA"/></linearGradient></defs><path stroke="url(#a)" stroke-linejoin="round" stroke-width="2.5" d="M120 62c-16 26-16 56 0 80 16-24 16-54 0-80Z"/><path stroke="url(#a)" stroke-linecap="round" stroke-width="2.5" d="M114 138c-22-10-34-30-34-54 18 8 30 24 36 42m10 12c22-10 34-30 34-54-18 8-30 24-36 42"/><path stroke="#8B9BB4" stroke-linecap="round" stroke-opacity=".55" stroke-width="2.5" d="M108 142c-26 4-46-4-56-22m80 22c26 4 46-4 56-22"/><path stroke="url(#a)" stroke-linecap="round" stroke-width="2.5" d="M74 156c22 14 70 14 92 0"/><path stroke="#8B9BB4" stroke-dasharray="1 7" stroke-linecap="round" stroke-opacity=".4" stroke-width="2" d="M84 176c20 10 52 10 72 0"/><circle cx="120" cy="48" r="2.8" fill="#67E8F9"/></svg>