<svg xmlns="http://www.w3.org/2000/svg" fill="none" viewBox="0 0 240 240"><defs><linearGradient id="a" x1="60" x2="180" y1="36" y2="210" gradientUnits="userSpaceOnUse"><stop offset="0" stop-color="#0369a1"/><stop offset="1" stop-color="#0f766e"/></linearGradient></defs><path stroke="url(#a)" stroke-linejoin="round" stroke-width="3" d="M74 70c0-8 6-14 14-14h64c8 0 14 6 14 14v118c0 8-6 14-14 14H88c-8 0-14-6-14-14Z"/><path stroke="url(#a)" stroke-linejoin="round" stroke-width="3" d="M98 56h44c4 0 8 4 8 8v10H90V64c0-4 4-8 8-8Z"/><circle cx="120" cy="64" r="3.5" fill="#0369a1"/><path stroke="#0369a1" stroke-linecap="round" stroke-linejoin="round" stroke-width="2.8" d="M92 104l4 4 8-8"/><path stroke="#475569" stroke-linecap="round" stroke-width="2.4" d="M112 108h40"/><path stroke="#0369a1" stroke-linecap="round" stroke-linejoin="round" stroke-width="2.8" d="M92 128l4 4 8-8"/><path stroke="#475569" stroke-linecap="round" stroke-width="2.4" d="M112 132h34"/><path stroke="url(#a)" stroke-linecap="round" stroke-linejoin="round" stroke-width="2.8" d="M92 152l4 4 8-8"/><path stroke="#475569" stroke-linecap="round" stroke-width="2.4" d="M112 156h40"/><path stroke="#475569" stroke-linecap="round" stroke-width="2.4" d="M78 210h84"/><circle cx="78" cy="210" r="3.6" fill="#0369a1"/><circle cx="99" cy="210" r="3.6" fill="#0369a1"/><circle cx="120" cy="210" r="3.6" fill="#0f766e"/><circle cx="141" cy="210" r="3.6" fill="#0f766e"/><circle cx="162" cy="210" r="3.6" fill="#0f766e"/><path stroke="url(#a)" stroke-linecap="round" stroke-linejoin="round" stroke-width="2.6" d="M176 118c0-7 5-11 10-11s10 4 10 11c0 9-10 16-10 16s-10-7-10-16Z"/></svg>
